<svg xmlns="http://www.w3.org/2000/svg" version="1.1" xmlns:xlink="http://www.w3.org/1999/xlink" xmlns:svgjs="http://svgjs.dev/svgjs" viewBox="0 0 2400 800" opacity="1"><defs><linearGradient x1="50%" y1="0%" x2="50%" y2="100%" id="sssurf-grad"><stop stop-color="#284588" stop-opacity="1" offset="0%"></stop><stop stop-color="hsla(208, 100%, 50%, 1.00)" stop-opacity="1" offset="100%"></stop></linearGradient></defs><g fill="url(#sssurf-grad)" transform="matrix(1,0,0,1,9.109130859375,71.53992462158203)"><path d="M-10,10C37.53787878787879,13.333333333333332,125.18939393939395,32.875,218.1818181818182,26C311.17424242424244,19.125,345.4545454545455,-30.291666666666664,436.3636363636364,-23C527.2727272727273,-15.708333333333334,563.6363636363636,65.16666666666667,654.5454545454545,61C745.4545454545454,56.833333333333336,781.8181818181818,-39.875,872.7272727272727,-43C963.6363636363637,-46.125,1000.0000000000001,43.5,1090.909090909091,46C1181.818181818182,48.5,1218.181818181818,-28.916666666666668,1309.090909090909,-31C1400,-33.083333333333336,1436.3636363636363,36.416666666666664,1527.2727272727273,36C1618.1818181818182,35.583333333333336,1654.5454545454545,-40.291666666666664,1745.4545454545455,-33C1836.3636363636365,-25.708333333333336,1872.7272727272727,62.041666666666664,1963.6363636363637,71C2054.5454545454545,79.95833333333333,2090.909090909091,15.208333333333334,2181.818181818182,10C2272.727272727273,4.791666666666666,2302.462121212121,-35.25,2400,46C2497.537878787879,127.25,3254.1666666666665,222.08333333333331,2650,400C2045.8333333333335,577.9166666666667,156.25,795.8333333333334,-500,900" transform="matrix(1,0,0,1,0,150)" opacity="0.05"></path><path d="M-10,10C37.53787878787879,13.333333333333332,125.18939393939395,32.875,218.1818181818182,26C311.17424242424244,19.125,345.4545454545455,-30.291666666666664,436.3636363636364,-23C527.2727272727273,-15.708333333333334,563.6363636363636,65.16666666666667,654.5454545454545,61C745.4545454545454,56.833333333333336,781.8181818181818,-39.875,872.7272727272727,-43C963.6363636363637,-46.125,1000.0000000000001,43.5,1090.909090909091,46C1181.818181818182,48.5,1218.181818181818,-28.916666666666668,1309.090909090909,-31C1400,-33.083333333333336,1436.3636363636363,36.416666666666664,1527.2727272727273,36C1618.1818181818182,35.583333333333336,1654.5454545454545,-40.291666666666664,1745.4545454545455,-33C1836.3636363636365,-25.708333333333336,1872.7272727272727,62.041666666666664,1963.6363636363637,71C2054.5454545454545,79.95833333333333,2090.909090909091,15.208333333333334,2181.818181818182,10C2272.727272727273,4.791666666666666,2302.462121212121,-35.25,2400,46C2497.537878787879,127.25,3254.1666666666665,222.08333333333331,2650,400C2045.8333333333335,577.9166666666667,156.25,795.8333333333334,-500,900" transform="matrix(1,0,0,1,0,300)" opacity="0.53"></path><path d="M-10,10C37.53787878787879,13.333333333333332,125.18939393939395,32.875,218.1818181818182,26C311.17424242424244,19.125,345.4545454545455,-30.291666666666664,436.3636363636364,-23C527.2727272727273,-15.708333333333334,563.6363636363636,65.16666666666667,654.5454545454545,61C745.4545454545454,56.833333333333336,781.8181818181818,-39.875,872.7272727272727,-43C963.6363636363637,-46.125,1000.0000000000001,43.5,1090.909090909091,46C1181.818181818182,48.5,1218.181818181818,-28.916666666666668,1309.090909090909,-31C1400,-33.083333333333336,1436.3636363636363,36.416666666666664,1527.2727272727273,36C1618.1818181818182,35.583333333333336,1654.5454545454545,-40.291666666666664,1745.4545454545455,-33C1836.3636363636365,-25.708333333333336,1872.7272727272727,62.041666666666664,1963.6363636363637,71C2054.5454545454545,79.95833333333333,2090.909090909091,15.208333333333334,2181.818181818182,10C2272.727272727273,4.791666666666666,2302.462121212121,-35.25,2400,46C2497.537878787879,127.25,3254.1666666666665,222.08333333333331,2650,400C2045.8333333333335,577.9166666666667,156.25,795.8333333333334,-500,900" transform="matrix(1,0,0,1,0,450)" opacity="1.00"></path></g></svg>